Coordinates
version=1
nRows=10
nColumns=40
inDegrees=yes

Units are S.I. units (second, meters, Newtons, ...)
Angles are in degrees.

endheader
time	pelvis_tilt	pelvis_list	pelvis_rotation	pelvis_tx	pelvis_ty	pelvis_tz	hip_flexion_r	hip_adduction_r	hip_rotation_r	knee_angle_r	knee_angle_r_beta	ankle_angle_r	subtalar_angle_r	mtp_angle_r	hip_flexion_l	hip_adduction_l	hip_rotation_l	knee_angle_l	knee_angle_l_beta	ankle_angle_l	subtalar_angle_l	mtp_angle_l	lumbar_extension	lumbar_bending	lumbar_rotation	arm_flex_r	arm_add_r	arm_rot_r	elbow_flex_r	pro_sup_r	wrist_flex_r	wrist_dev_r	arm_flex_l	arm_add_l	arm_rot_l	elbow_flex_l	pro_sup_l	wrist_flex_l	wrist_dev_l
      2.33750000	     -4.66275884	     -6.44046148	      1.85888369	      0.92395121	      0.93106975	      0.56094204	     10.39025076	      5.02823789	    -20.21852100	     12.94055880	     12.94055880	      9.56211903	      3.26837960	     -4.48297582	     36.61882805	    -14.95290275	     -0.84732929	     56.44292323	     56.44292323	      9.88045422	    -17.71771032	     10.61072611	    -13.41666806	      6.68192925	      2.86361621	     28.32205694	    -18.69253870	      2.78780760	     51.34817016	     45.24315411	      0.00000000	      0.00000000	     -5.00501464	     -6.47540249	    -12.94684104	     76.49756686	     48.41010145	      0.00000000	      0.00000000
      2.34900000	     -4.76773860	     -6.50639692	      1.95524534	      0.92234331	      0.93102684	      0.56094776	      9.72883739	      5.22754029	    -20.32126794	     12.29322383	     12.29322383	      9.62278005	      3.57691185	     -4.60376617	     37.17405424	    -14.84682770	     -0.93193662	     53.48019036	     53.48019036	      9.81555328	    -17.63983871	     11.15463608	    -13.42753361	      6.81725800	      2.82982285	     30.06353282	    -18.60402931	      3.11160546	     52.84149811	     45.19604289	      0.00000000	      0.00000000	     -4.79465571	     -6.26516385	    -12.05552638	     72.07348964	     48.26070116	      0.00000000	      0.00000000
      2.36050000	     -4.86125389	     -6.56824565	      2.02915642	      0.92078769	      0.93087099	      0.56085796	      9.08561292	      5.40354684	    -20.39665943	     11.71846320	     11.71846320	      9.71766071	      3.89413548	     -4.76802931	     37.56486709	    -14.69211013	     -0.97992303	     50.27484154	     50.27484154	      9.64869511	    -17.46355070	     11.45618368	    -13.45452630	      6.93429114	      2.87527493	     31.67945278	    -18.57727819	      3.39871454	     54.50572506	     45.14694752	      0.00000000	      0.00000000	     -4.45555754	     -6.03129059	    -11.24249106	     67.46069393	     48.11373684	      0.00000000	      0.00000000
      2.37200000	     -4.92977045	     -6.63228023	      2.10919920	      0.91931856	      0.93061374	      0.56069001	      8.41579633	      5.58161097	    -20.44147847	     11.15815881	     11.15815881	      9.85677612	      4.15577057	     -4.83010940	     37.79627565	    -14.48218001	     -0.94495186	     46.89440647	     46.89440647	      9.51742079	    -17.09912009	     11.78428416	    -13.54036170	      7.00387173	      2.38576420	     33.50684628	    -17.91471669	      3.52509354	     56.08789121	     45.10082003	      0.00000000	      0.00000000	     -4.91808858	     -5.96273550	    -10.77158022	     64.32900553	     48.01729695	      0.00000000	      0.00000000
      2.38350000	     -5.10791607	     -6.78823017	      2.14107729	      0.91789615	      0.93008504	      0.56050277	      7.85991472	      5.83955843	    -20.60115592	     10.59374163	     10.59374163	      9.94478182	      4.62309757	     -5.02121807	     38.06172678	    -14.37719776	     -0.90704124	     43.41472001	     43.41472001	      9.20806030	    -16.46554934	     11.63614472	    -13.44877716	      7.21069224	      2.44549349	     35.00114951	    -17.81649422	      3.87200277	     57.72215926	     45.04859985	      0.00000000	      0.00000000	     -4.30948396	     -5.58646017	    -10.37009176	     58.94355781	     47.89478040	      0.00000000	      0.00000000
      2.39500000	     -5.24728422	     -6.82664963	      2.11169384	      0.91659819	      0.92957248	      0.56024638	      7.32295868	      5.94686194	    -20.63160301	     10.18252998	     10.18252998	     10.12170683	      4.96635158	     -5.23641606	     38.04983441	    -14.18086343	     -1.01268010	     39.72587886	     39.72587886	      8.74027819	    -15.62311328	     10.99285163	    -13.38577490	      7.22964621	      2.96605039	     35.92577103	    -18.15291253	      3.96094675	     59.89256560	     44.99788914	      0.00000000	      0.00000000	     -3.46946201	     -5.15761380	    -10.12643084	     53.66352397	     47.77937786	      0.00000000	      0.00000000
      2.40650000	     -5.38208768	     -6.94971604	      2.06843910	      0.91543913	      0.92891473	      0.56002748	      6.74551755	      6.15899286	    -20.66502097	      9.71769940	      9.71769940	     10.31189775	      5.37903058	     -5.36307084	     37.99665123	    -14.08695734	     -1.11491751	     36.11986386	     36.11986386	      8.44373459	    -14.44374586	     10.62661116	    -13.35358136	      7.31186536	      3.03932708	     37.08153831	    -17.92793869	      3.95994412	     61.89515662	     44.95950813	      0.00000000	      0.00000000	     -3.23687800	     -4.90958223	    -10.11875927	     49.42197858	     47.69693679	      0.00000000	      0.00000000
      2.41800000	     -5.52513705	     -7.09017255	      2.00901511	      0.91443751	      0.92816302	      0.55976709	      6.17564739	      6.38230435	    -20.68027769	      9.27521198	      9.27521198	     10.52901081	      5.78013792	     -5.45561977	     37.88449021	    -14.02933168	     -1.29637055	     32.62122768	     32.62122768	      8.28052352	    -12.97299913	     10.47980823	    -13.28802371	      7.38718899	      3.04874643	     38.15850095	    -17.62962470	      4.00228683	     63.81427797	     44.92334513	      0.00000000	      0.00000000	     -3.13299339	     -4.67526109	    -10.40850354	     45.47381837	     47.64682720	      0.00000000	      0.00000000
      2.42950000	     -5.66132798	     -7.23852322	      1.91486665	      0.91361456	      0.92734292	      0.55948337	      5.59926401	      6.60692995	    -20.66404721	      8.86477838	      8.86477838	     10.77625758	      6.18779687	     -5.51544877	     37.71002429	    -14.01664864	     -1.61908562	     29.31999798	     29.31999798	      8.25084890	    -11.29391000	     10.57087815	    -13.21463252	      7.44475513	      3.07107625	     39.09292647	    -17.32317426	      4.05467232	     65.75144915	     44.88774727	      0.00000000	      0.00000000	     -3.11155300	     -4.48064831	    -10.95262609	     41.82333664	     47.62663904	      0.00000000	      0.00000000
      2.44100000	     -5.77165826	     -7.38802254	      1.79599857	      0.91298049	      0.92648133	      0.55912746	      5.01111590	      6.81635344	    -20.60585672	      8.51872294	      8.51872294	     11.08323649	      6.56654556	     -5.53940025	     37.46963862	    -14.01552728	     -2.04296960	     26.29648303	     26.29648303	      8.32809031	     -9.60415642	     10.90486072	    -13.16463232	      7.49085456	      3.12089185	     39.89638272	    -17.03589681	      4.07032293	     67.78660523	     44.85652445	      0.00000000	      0.00000000	     -3.14068211	     -4.30980487	    -11.77208315	     38.47219891	     47.63503177	      0.00000000	      0.00000000
